<?xml version="1.0" encoding="UTF-8" standalone="no"?>
<!-- Created with Inkscape (http://www.inkscape.org/) -->

<svg
   width="19.63501mm"
   height="38.158058mm"
   viewBox="0 0 19.63501 38.158058"
   version="1.1"
   id="svg5"
   xml:space="preserve"
   inkscape:version="1.2.1 (9c6d41e410, 2022-07-14)"
   sodipodi:docname="blau.svg"
   inkscape:export-filename="blau.svg"
   inkscape:export-xdpi="96"
   inkscape:export-ydpi="96"
   xmlns:inkscape="http://www.inkscape.org/namespaces/inkscape"
   xmlns:sodipodi="http://sodipodi.sourceforge.net/DTD/sodipodi-0.dtd"
   xmlns="http://www.w3.org/2000/svg"
   xmlns:svg="http://www.w3.org/2000/svg"><sodipodi:namedview
     id="namedview7"
     pagecolor="#ffffff"
     bordercolor="#000000"
     borderopacity="0.25"
     inkscape:showpageshadow="2"
     inkscape:pageopacity="0.0"
     inkscape:pagecheckerboard="0"
     inkscape:deskcolor="#d1d1d1"
     inkscape:document-units="mm"
     showgrid="false"
     inkscape:zoom="3.9710672"
     inkscape:cx="314.14729"
     inkscape:cy="405.68439"
     inkscape:window-width="1920"
     inkscape:window-height="986"
     inkscape:window-x="-11"
     inkscape:window-y="-11"
     inkscape:window-maximized="1"
     inkscape:current-layer="layer1" /><defs
     id="defs2" /><g
     inkscape:label="Ebene 1"
     inkscape:groupmode="layer"
     id="layer1"
     transform="translate(-79.601244,-81.893453)"><path
       style="fill:#009dff;fill-opacity:1;stroke-width:0.0846667"
       d="m 87.298252,119.97017 c -2.946325,-0.33876 -5.636286,-1.37076 -7.070831,-2.71271 l -0.522005,-0.48831 -0.05208,-2.75594 -0.05209,-2.75594 2.959502,-8.4327 c 1.627726,-4.637984 2.959464,-8.475986 2.959414,-8.528891 -5e-5,-0.05291 -0.25124,-0.34163 -0.55821,-0.64161 -1.360556,-1.32957 -2.067024,-2.961695 -2.091072,-4.830916 -0.01498,-1.164543 0.177622,-2.010967 0.70321,-3.090334 0.660907,-1.357264 1.361082,-2.112577 2.710972,-2.924466 2.80707,-1.688312 6.64631,-0.977332 8.72782,1.616288 0.55334,0.689476 0.86904,1.273295 1.18907,2.198946 0.26487,0.766118 0.27758,0.860241 0.27975,2.072566 0.002,1.102977 -0.024,1.353512 -0.19761,1.905 -0.38884,1.235228 -1.03965,2.291637 -1.94526,3.157583 -0.35643,0.340817 -0.49699,0.53245 -0.46043,0.627723 0.0352,0.09183 0.0197,0.116793 -0.047,0.07556 -0.0548,-0.03387 -0.21065,0.01748 -0.34634,0.114096 -0.43655,0.310848 -1.46895,0.758784 -2.16514,0.939405 -0.46989,0.12191 -1.07607,0.191174 -1.97929,0.226161 -1.47883,0.05728 -1.48789,0.09282 -0.12617,0.49467 0.65819,0.194238 0.85523,0.216315 1.59746,0.178984 1.26158,-0.06345 2.75378,-0.598926 3.1804,-1.141275 0.0902,-0.114627 0.16393,-0.160995 0.16393,-0.103041 0,0.05795 1.143,3.981955 2.54,8.719991 l 2.54,8.61462 v 1.73119 1.73118 l -0.25186,0.39716 c -1.19672,1.88702 -3.72708,3.14551 -7.19558,3.57877 -1.05063,0.13124 -3.45519,0.14529 -4.49056,0.0262 z m -4.191002,-6.86695 c -0.437764,-0.3158 -0.882617,-0.82043 -1.098105,-1.24568 -0.603187,-1.19033 -0.424003,-2.74035 0.739543,-6.39739 0.497792,-1.56456 0.624114,-2.03144 0.490806,-1.81397 -0.08503,0.13871 -1.287821,3.31565 -2.416636,6.38308 l -0.653238,1.77511 0.241148,0.19716 c 0.422509,0.34546 1.310255,0.80758 2.014184,1.04851 0.827457,0.2832 1.022196,0.29838 0.682298,0.0532 z m 3.556002,-28.318394 c 1.12535,-0.755178 2.7491,-1.38034 3.5852,-1.38034 0.48562,0 0.51482,-0.147207 0.0432,-0.217927 -0.53828,-0.08072 -1.74772,0.01414 -2.3161,0.181663 -1.4974,0.441327 -2.77392,1.57205 -3.307076,2.929361 l -0.177247,0.451236 0.831993,-0.811547 c 0.4576,-0.44635 1.06059,-0.964951 1.33999,-1.152446 z"
       id="path3036"
       inkscape:export-filename="gelb.svg"
       inkscape:export-xdpi="96"
       inkscape:export-ydpi="96" /></g></svg>
